PathFileType	4	(X/Y/Z)	10_1_42_p0_0-305_filt_butterworth.trc
DataRate	CameraRate	NumFrames	NumMarkers	Units	OrigDataRate	OrigDataStartFrame	OrigNumFrames
60.0	60.0	5	27	m	60.0	0	305
Frame#	Time	RHip			RKnee			RAnkle			RBigToe			RSmallToe			RHeel			LHip			LKnee			LAnkle			LBigToe			LSmallToe			LHeel			Neck			Head			Nose			RShoulder			RElbow			RWrist			RThumb			RIndex			RPinky			LShoulder			LElbow			LWrist			LThumb			LIndex			LPinky			
		X1	Y1	Z1	X2	Y2	Z2	X3	Y3	Z3	X4	Y4	Z4	X5	Y5	Z5	X6	Y6	Z6	X7	Y7	Z7	X8	Y8	Z8	X9	Y9	Z9	X10	Y10	Z10	X11	Y11	Z11	X12	Y12	Z12	X13	Y13	Z13	X14	Y14	Z14	X15	Y15	Z15	X16	Y16	Z16	X17	Y17	Z17	X18	Y18	Z18	X19	Y19	Z19	X20	Y20	Z20	X21	Y21	Z21	X22	Y22	Z22	X23	Y23	Z23	X24	Y24	Z24	X25	Y25	Z25	X26	Y26	Z26	X27	Y27	Z27	
0	0.0	0.3046756351395778	0.8316715452475002	0.7076494653267591	0.3115559032357599	0.3619860388513921	0.7483342488226913	0.32281310741972646	-0.06403049786053668	0.7969469130422074	0.2699968168767428	-0.08411674662618804	0.60440704808807	0.33359996418980753	-0.08927629138637143	0.6370894362066305	0.29101996392021723	-0.1588225048842071	0.8990105478607399	0.07765231020089793	0.8338317117397277	0.6915379406348543	0.08774296380737756	0.37518547144045056	0.7215772179656706	0.08267638984367107	-0.05982791586160127	0.777568138932128	0.11414234501264238	-0.0859612541411368	0.5935816999200999	0.05602987990585814	-0.07721485236705655	0.6342853695444	0.09559615690626623	-0.1340970146386224	0.8697273868745655	0.1960995221102037	1.4286343918846296	0.684069154981918	0.22154566534326192	1.6905722913915358	0.60214820095288	0.2201460271735567	1.5536162178996142	0.5530012949045946	0.36359396531044286	1.335011170140432	0.7055952520537758	0.4124706722582875	1.072747024542824	0.5693369695297891	0.2537190434719378	0.9220238900879524	0.42835373826270956	0.16129185355781545	0.8222817498524646	0.43783721225590133	0.16556840956196836	0.8041598102139697	0.43528095152998947	0.1766180798468104	0.7970951695060035	0.42114646202644224	0.04356802116020967	1.3618060708047057	0.6935921539078376	0.018637739401946036	1.0803353124165493	0.5730377885865086	0.13253034693903554	0.9179617578567715	0.422204784009229	0.20783263841366933	0.8240413196842733	0.4458790483323263	0.19205548422658136	0.7925666415143596	0.4217873165540793	0.16840757745215051	0.7970042906370611	0.41706225914866735	
1	0.0166666666666666	0.3055736784096884	0.8318790169969856	0.7081621266387974	0.3115397375355643	0.36207855503374703	0.7481798013749901	0.322850708854137	-0.06407406502048082	0.7968172921462409	0.271482483328886	-0.08252147060797752	0.6006693805388025	0.33296613411332404	-0.08587424858063189	0.6314972986655522	0.29176843671418845	-0.161971771740708	0.9037857479421162	0.07787732648635833	0.8333162144792289	0.6918725126096185	0.08671319131122392	0.37389437515234347	0.7239842065206171	0.08281561198523024	-0.061446496409551576	0.7782459318576643	0.11424185061843325	-0.083478069825019	0.5938667737368923	0.0561105590297317	-0.0767207178075327	0.6339623875056317	0.09533589591447494	-0.13739028641318118	0.8742653680110821	0.19434154680190394	1.42857941866076	0.6834331458959682	0.22042210678612598	1.6905487710159928	0.6018969360875838	0.2184385221985169	1.5542753941313223	0.553086164483866	0.36356869114086704	1.335245062958672	0.7055631285747076	0.41208384165712997	1.076161171535839	0.5680752793991412	0.2535756776889489	0.9226577858294718	0.42809579793387975	0.16122714669722932	0.8221079712846817	0.43295862466604995	0.16512254609954433	0.8055720400759171	0.430967215587006	0.17391432373474214	0.8027741715551572	0.4186203469523452	0.043403870674890176	1.3618033775380156	0.692760120314472	0.017099112221613668	1.0803144353016552	0.5722419460470854	0.13283548163194392	0.9168948084870419	0.4215638084159584	0.20684034309242516	0.8243416297330729	0.4487325379475862	0.1924529518897353	0.7962213383553246	0.41852422275982154	0.17087586815853123	0.7943198471176725	0.4169500360868387	
2	0.0333333333333333	0.30631919459120555	0.8319741831926506	0.7085920003351485	0.3115267954538596	0.36214937551192733	0.7480669507601695	0.3228826928011862	-0.06411039853671466	0.7967065072144609	0.2729173145888774	-0.08013810129881893	0.5971888029366156	0.3324199215877666	-0.08361903137725554	0.6277715336435399	0.29238057284456015	-0.16465697190098427	0.9077644981431648	0.07806770774363032	0.832872321319349	0.6921616009261253	0.08590167134570341	0.3729010548434077	0.7258977715191522	0.08293453450757132	-0.06278446732751863	0.7788164213059645	0.11395508540444114	-0.0828359895053662	0.5952648421380853	0.05626312249606555	-0.0770503542531393	0.6340428839821598	0.09510172166149437	-0.14019866535005895	0.8780093200275962	0.19311991273826334	1.428552694458464	0.6829420283921104	0.219456695179151	1.6905192610815092	0.6015514967091355	0.21715362991671944	1.5544235041450465	0.5528032155809479	0.363562099383521	1.335285589514174	0.7055926559153585	0.41182875964283955	1.0783236105784213	0.5672179299399742	0.2534389147651239	0.9234696021384113	0.4278001416625649	0.16212823043266208	0.8209903832315187	0.43290118073314154	0.1662614226784583	0.8054419966821683	0.4307625396860986	0.1719275438882448	0.8071978834913305	0.4175413454621031	0.04317741054414653	1.3618863521248605	0.6913876461769904	0.015990791052403943	1.0806491244474028	0.5717888690827571	0.1329796174797601	0.9164273673674919	0.4212529843717776	0.20730492875300552	0.8259105823272683	0.44870213344700005	0.19383458556916813	0.7991601877341937	0.4163731450321927	0.17259087799373626	0.7928171228841429	0.4169249042159422	
3	0.05	0.3069239940824633	0.8319679681965488	0.708945514764403	0.3115171787569592	0.3621982185573065	0.747991891931114	0.322909519997801	-0.06414006092178971	0.796613224219608	0.27423482080801737	-0.0773028226256442	0.5940893465505028	0.3319591657024106	-0.08230549011822857	0.6255806366009254	0.29286794301990055	-0.16690191049839767	0.9110007354014172	0.07822595386138594	0.8324949558971373	0.692408161451779	0.08528938278143276	0.3721754688900233	0.7273616586605396	0.08303536090742346	-0.06386359194838775	0.7792871556243565	0.11338541941910696	-0.08368667097771461	0.5975817433831504	0.05646312196551584	-0.07798437129598296	0.6344242425070155	0.09489323266811915	-0.14255360440133535	0.8810229226215167	0.1923444649707955	1.4285491130289487	0.6825777621040918	0.21865132754957806	1.6904926266942695	0.6011530480643267	0.21624860974434074	1.5542105552410914	0.5523293028089216	0.3635669136853139	1.3352065766312098	0.7056571898009472	0.4116820387254106	1.0795007145689313	0.5666932645735026	0.25331427767882886	0.9243762780038158	0.4274909535424043	0.16372846190782525	0.8192571458395205	0.4363243905703269	0.168469867055945	0.8042080704888657	0.43363501909073665	0.17056795828783305	0.8104781751382695	0.4176373067716814	0.04291101804862804	1.3620306661547537	0.689650752509256	0.015244573932548572	1.081236139607789	0.5716079188932118	0.1330002393066141	0.9164253944021583	0.42120209417229576	0.20883216408651414	0.8283603699443712	0.4465519942978809	0.1958646435041563	0.8013610987647409	0.41541993377068254	0.17364397904108841	0.792366704091216	0.41695189903120516	
4	0.0666666666666666	0.3073998872817957	0.8318712963707341	0.7092290982751517	0.3115109892111765	0.362224802441258	0.747950819840708	0.32293165118090844	-0.06416361468825713	0.7965361091344227	0.2753685121376062	-0.07435181851538525	0.5914950426494575	0.3315817055465315	-0.08172847514553697	0.6245931029980412	0.2932421179487778	-0.1687303926663104	0.9135483966544038	0.07835456472829716	0.8321790418496431	0.6926151500539833	0.08485730448902874	0.3716875756685706	0.7284196136440433	0.08312029468151584	-0.06470563360504412	0.7796656831601687	0.11263622271087166	-0.08568177203759958	0.6006233157315596	0.05668610909873872	-0.07930337852817075	0.6350038466132301	0.09471002745514388	-0.1444865565190901	0.8833698554902516	0.19192504855101383	1.4285635681234212	0.6823223066656605	0.21800790092464822	1.6904777329604581	0.6007427553999488	0.21568072109755718	1.55378655471976	0.5518412807808686	0.36357585769315465	1.3350818511340505	0.7057300859566926	0.4116202914148377	1.0799588564057307	0.5664296267209409	0.25320728940843	0.9252947524147297	0.42719241766703697	0.16576119826643032	0.8172364192552314	0.44188776429075716	0.171232706989239	0.8023086519521513	0.4385527490643895	0.16974578491402165	0.8127269163197192	0.41863608009704556	0.04262707046898398	1.362211991217209	0.6877254603251317	0.01479225890027927	1.0819722405368115	0.5716284566781386	0.13293483193663594	0.9167548494950781	0.4213409201131218	0.21102781778405466	0.8313031850618935	0.4430462799675417	0.1982073839339762	0.8028019805607403	0.4157504393747806	0.17412654338391037	0.7928391768936354	0.41699605602785506	
